<mxfile host="app.diagrams.net" modified="2020-12-09T03:22:10.742Z" agent="5.0 (Windows NT 10.0; WOW64) AppleWebKit/537.36 (KHTML, like Gecko) Chrome/87.0.4280.66 Safari/537.36" etag="o3Jy_9WhXd85tAATlVik" version="13.10.9" type="github">
  <diagram id="EnRVDa19JPiBxlZRLjFq" name="kms代码模块">
    <mxGraphModel dx="1108" dy="482" grid="1" gridSize="10" guides="1" tooltips="1" connect="1" arrows="1" fold="1" page="1" pageScale="1" pageWidth="827" pageHeight="1169" math="0" shadow="0">
      <root>
        <mxCell id="D3UzuKtn8YtnLK4msElT-0" />
        <mxCell id="D3UzuKtn8YtnLK4msElT-1" parent="D3UzuKtn8YtnLK4msElT-0" />
        <mxCell id="D3UzuKtn8YtnLK4msElT-2" value="文档存储" style="rounded=0;whiteSpace=wrap;html=1;" vertex="1" parent="D3UzuKtn8YtnLK4msElT-1">
          <mxGeometry x="520" y="330" width="120" height="40" as="geometry" />
        </mxCell>
        <mxCell id="D3UzuKtn8YtnLK4msElT-17" style="edgeStyle=orthogonalEdgeStyle;rounded=0;orthogonalLoop=1;jettySize=auto;html=1;entryX=0;entryY=0.5;entryDx=0;entryDy=0;" edge="1" parent="D3UzuKtn8YtnLK4msElT-1" source="D3UzuKtn8YtnLK4msElT-3" target="D3UzuKtn8YtnLK4msElT-15">
          <mxGeometry relative="1" as="geometry" />
        </mxCell>
        <mxCell id="D3UzuKtn8YtnLK4msElT-18" style="edgeStyle=orthogonalEdgeStyle;rounded=0;orthogonalLoop=1;jettySize=auto;html=1;entryX=0;entryY=0.5;entryDx=0;entryDy=0;" edge="1" parent="D3UzuKtn8YtnLK4msElT-1" source="D3UzuKtn8YtnLK4msElT-3" target="D3UzuKtn8YtnLK4msElT-16">
          <mxGeometry relative="1" as="geometry" />
        </mxCell>
        <mxCell id="D3UzuKtn8YtnLK4msElT-19" style="edgeStyle=orthogonalEdgeStyle;rounded=0;orthogonalLoop=1;jettySize=auto;html=1;entryX=0;entryY=0.5;entryDx=0;entryDy=0;" edge="1" parent="D3UzuKtn8YtnLK4msElT-1" source="D3UzuKtn8YtnLK4msElT-3" target="D3UzuKtn8YtnLK4msElT-11">
          <mxGeometry relative="1" as="geometry" />
        </mxCell>
        <mxCell id="D3UzuKtn8YtnLK4msElT-20" style="edgeStyle=orthogonalEdgeStyle;rounded=0;orthogonalLoop=1;jettySize=auto;html=1;entryX=0;entryY=0.5;entryDx=0;entryDy=0;" edge="1" parent="D3UzuKtn8YtnLK4msElT-1" source="D3UzuKtn8YtnLK4msElT-3" target="D3UzuKtn8YtnLK4msElT-12">
          <mxGeometry relative="1" as="geometry" />
        </mxCell>
        <mxCell id="D3UzuKtn8YtnLK4msElT-38" style="edgeStyle=orthogonalEdgeStyle;rounded=0;orthogonalLoop=1;jettySize=auto;html=1;entryX=0;entryY=0.5;entryDx=0;entryDy=0;" edge="1" parent="D3UzuKtn8YtnLK4msElT-1" source="D3UzuKtn8YtnLK4msElT-3" target="D3UzuKtn8YtnLK4msElT-37">
          <mxGeometry relative="1" as="geometry" />
        </mxCell>
        <mxCell id="D3UzuKtn8YtnLK4msElT-3" value="solr查询" style="rounded=0;whiteSpace=wrap;html=1;" vertex="1" parent="D3UzuKtn8YtnLK4msElT-1">
          <mxGeometry x="80" y="140" width="120" height="40" as="geometry" />
        </mxCell>
        <mxCell id="D3UzuKtn8YtnLK4msElT-33" style="edgeStyle=orthogonalEdgeStyle;rounded=0;orthogonalLoop=1;jettySize=auto;html=1;entryX=0;entryY=0.5;entryDx=0;entryDy=0;" edge="1" parent="D3UzuKtn8YtnLK4msElT-1" source="D3UzuKtn8YtnLK4msElT-4" target="D3UzuKtn8YtnLK4msElT-32">
          <mxGeometry relative="1" as="geometry" />
        </mxCell>
        <mxCell id="D3UzuKtn8YtnLK4msElT-34" style="edgeStyle=orthogonalEdgeStyle;rounded=0;orthogonalLoop=1;jettySize=auto;html=1;entryX=0;entryY=0.5;entryDx=0;entryDy=0;" edge="1" parent="D3UzuKtn8YtnLK4msElT-1" source="D3UzuKtn8YtnLK4msElT-4" target="D3UzuKtn8YtnLK4msElT-6">
          <mxGeometry relative="1" as="geometry" />
        </mxCell>
        <mxCell id="D3UzuKtn8YtnLK4msElT-35" style="edgeStyle=orthogonalEdgeStyle;rounded=0;orthogonalLoop=1;jettySize=auto;html=1;entryX=0;entryY=0.5;entryDx=0;entryDy=0;" edge="1" parent="D3UzuKtn8YtnLK4msElT-1" source="D3UzuKtn8YtnLK4msElT-4" target="D3UzuKtn8YtnLK4msElT-31">
          <mxGeometry relative="1" as="geometry" />
        </mxCell>
        <mxCell id="D3UzuKtn8YtnLK4msElT-4" value="dev服务" style="rounded=0;whiteSpace=wrap;html=1;" vertex="1" parent="D3UzuKtn8YtnLK4msElT-1">
          <mxGeometry x="80" y="910" width="120" height="40" as="geometry" />
        </mxCell>
        <mxCell id="D3UzuKtn8YtnLK4msElT-6" value="抽取数据库文档数据内容到文件，用于训练" style="rounded=0;whiteSpace=wrap;html=1;" vertex="1" parent="D3UzuKtn8YtnLK4msElT-1">
          <mxGeometry x="320" y="910" width="120" height="40" as="geometry" />
        </mxCell>
        <mxCell id="D3UzuKtn8YtnLK4msElT-10" value="" style="edgeStyle=orthogonalEdgeStyle;rounded=0;orthogonalLoop=1;jettySize=auto;html=1;" edge="1" parent="D3UzuKtn8YtnLK4msElT-1" source="D3UzuKtn8YtnLK4msElT-8" target="D3UzuKtn8YtnLK4msElT-9">
          <mxGeometry relative="1" as="geometry" />
        </mxCell>
        <mxCell id="D3UzuKtn8YtnLK4msElT-8" value="mq消费" style="rounded=0;whiteSpace=wrap;html=1;" vertex="1" parent="D3UzuKtn8YtnLK4msElT-1">
          <mxGeometry x="80" y="420" width="120" height="40" as="geometry" />
        </mxCell>
        <mxCell id="D3UzuKtn8YtnLK4msElT-24" style="edgeStyle=orthogonalEdgeStyle;rounded=0;orthogonalLoop=1;jettySize=auto;html=1;entryX=0;entryY=0.5;entryDx=0;entryDy=0;" edge="1" parent="D3UzuKtn8YtnLK4msElT-1" source="D3UzuKtn8YtnLK4msElT-9" target="D3UzuKtn8YtnLK4msElT-2">
          <mxGeometry relative="1" as="geometry" />
        </mxCell>
        <mxCell id="D3UzuKtn8YtnLK4msElT-25" style="edgeStyle=orthogonalEdgeStyle;rounded=0;orthogonalLoop=1;jettySize=auto;html=1;entryX=0;entryY=0.5;entryDx=0;entryDy=0;" edge="1" parent="D3UzuKtn8YtnLK4msElT-1" source="D3UzuKtn8YtnLK4msElT-9" target="D3UzuKtn8YtnLK4msElT-21">
          <mxGeometry relative="1" as="geometry" />
        </mxCell>
        <mxCell id="D3UzuKtn8YtnLK4msElT-26" style="edgeStyle=orthogonalEdgeStyle;rounded=0;orthogonalLoop=1;jettySize=auto;html=1;entryX=0;entryY=0.5;entryDx=0;entryDy=0;" edge="1" parent="D3UzuKtn8YtnLK4msElT-1" source="D3UzuKtn8YtnLK4msElT-9" target="D3UzuKtn8YtnLK4msElT-22">
          <mxGeometry relative="1" as="geometry" />
        </mxCell>
        <mxCell id="D3UzuKtn8YtnLK4msElT-27" style="edgeStyle=orthogonalEdgeStyle;rounded=0;orthogonalLoop=1;jettySize=auto;html=1;entryX=0;entryY=0.5;entryDx=0;entryDy=0;" edge="1" parent="D3UzuKtn8YtnLK4msElT-1" source="D3UzuKtn8YtnLK4msElT-9" target="D3UzuKtn8YtnLK4msElT-23">
          <mxGeometry relative="1" as="geometry" />
        </mxCell>
        <mxCell id="D3UzuKtn8YtnLK4msElT-9" value="消费DLM传输到队列的数据" style="whiteSpace=wrap;html=1;rounded=0;" vertex="1" parent="D3UzuKtn8YtnLK4msElT-1">
          <mxGeometry x="320" y="420" width="120" height="40" as="geometry" />
        </mxCell>
        <mxCell id="D3UzuKtn8YtnLK4msElT-11" value="查询文档标签" style="rounded=0;whiteSpace=wrap;html=1;" vertex="1" parent="D3UzuKtn8YtnLK4msElT-1">
          <mxGeometry x="320" y="140" width="120" height="40" as="geometry" />
        </mxCell>
        <mxCell id="D3UzuKtn8YtnLK4msElT-12" value="更新文档标签" style="rounded=0;whiteSpace=wrap;html=1;" vertex="1" parent="D3UzuKtn8YtnLK4msElT-1">
          <mxGeometry x="320" y="200" width="120" height="40" as="geometry" />
        </mxCell>
        <mxCell id="D3UzuKtn8YtnLK4msElT-15" value="文档搜索" style="rounded=0;whiteSpace=wrap;html=1;" vertex="1" parent="D3UzuKtn8YtnLK4msElT-1">
          <mxGeometry x="320" y="20" width="120" height="40" as="geometry" />
        </mxCell>
        <mxCell id="D3UzuKtn8YtnLK4msElT-16" value="文档存储" style="rounded=0;whiteSpace=wrap;html=1;" vertex="1" parent="D3UzuKtn8YtnLK4msElT-1">
          <mxGeometry x="320" y="80" width="120" height="40" as="geometry" />
        </mxCell>
        <mxCell id="D3UzuKtn8YtnLK4msElT-21" value="更新文档属性" style="rounded=0;whiteSpace=wrap;html=1;" vertex="1" parent="D3UzuKtn8YtnLK4msElT-1">
          <mxGeometry x="520" y="390" width="120" height="40" as="geometry" />
        </mxCell>
        <mxCell id="D3UzuKtn8YtnLK4msElT-22" value="更新文档内容" style="rounded=0;whiteSpace=wrap;html=1;" vertex="1" parent="D3UzuKtn8YtnLK4msElT-1">
          <mxGeometry x="520" y="450" width="120" height="40" as="geometry" />
        </mxCell>
        <mxCell id="D3UzuKtn8YtnLK4msElT-23" value="删除文档" style="rounded=0;whiteSpace=wrap;html=1;" vertex="1" parent="D3UzuKtn8YtnLK4msElT-1">
          <mxGeometry x="520" y="510" width="120" height="40" as="geometry" />
        </mxCell>
        <mxCell id="D3UzuKtn8YtnLK4msElT-43" style="edgeStyle=orthogonalEdgeStyle;rounded=0;orthogonalLoop=1;jettySize=auto;html=1;entryX=0;entryY=0.5;entryDx=0;entryDy=0;" edge="1" parent="D3UzuKtn8YtnLK4msElT-1" source="D3UzuKtn8YtnLK4msElT-28" target="D3UzuKtn8YtnLK4msElT-29">
          <mxGeometry relative="1" as="geometry" />
        </mxCell>
        <mxCell id="D3UzuKtn8YtnLK4msElT-44" style="edgeStyle=orthogonalEdgeStyle;rounded=0;orthogonalLoop=1;jettySize=auto;html=1;entryX=0;entryY=0.5;entryDx=0;entryDy=0;" edge="1" parent="D3UzuKtn8YtnLK4msElT-1" source="D3UzuKtn8YtnLK4msElT-28" target="D3UzuKtn8YtnLK4msElT-40">
          <mxGeometry relative="1" as="geometry" />
        </mxCell>
        <mxCell id="D3UzuKtn8YtnLK4msElT-45" style="edgeStyle=orthogonalEdgeStyle;rounded=0;orthogonalLoop=1;jettySize=auto;html=1;entryX=0;entryY=0.5;entryDx=0;entryDy=0;" edge="1" parent="D3UzuKtn8YtnLK4msElT-1" source="D3UzuKtn8YtnLK4msElT-28" target="D3UzuKtn8YtnLK4msElT-42">
          <mxGeometry relative="1" as="geometry" />
        </mxCell>
        <mxCell id="D3UzuKtn8YtnLK4msElT-28" value="label服务" style="rounded=0;whiteSpace=wrap;html=1;" vertex="1" parent="D3UzuKtn8YtnLK4msElT-1">
          <mxGeometry x="80" y="675" width="120" height="40" as="geometry" />
        </mxCell>
        <mxCell id="D3UzuKtn8YtnLK4msElT-29" value="查询公共属性标签" style="rounded=0;whiteSpace=wrap;html=1;" vertex="1" parent="D3UzuKtn8YtnLK4msElT-1">
          <mxGeometry x="320" y="585" width="120" height="40" as="geometry" />
        </mxCell>
        <mxCell id="D3UzuKtn8YtnLK4msElT-31" value="手动导入机器标签" style="rounded=0;whiteSpace=wrap;html=1;" vertex="1" parent="D3UzuKtn8YtnLK4msElT-1">
          <mxGeometry x="320" y="970" width="120" height="40" as="geometry" />
        </mxCell>
        <mxCell id="D3UzuKtn8YtnLK4msElT-32" value="抽取本地文件夹内文件内容到文件，用于训练" style="rounded=0;whiteSpace=wrap;html=1;" vertex="1" parent="D3UzuKtn8YtnLK4msElT-1">
          <mxGeometry x="320" y="850" width="120" height="40" as="geometry" />
        </mxCell>
        <mxCell id="D3UzuKtn8YtnLK4msElT-37" value="定时任务更新文档机器标签" style="rounded=0;whiteSpace=wrap;html=1;" vertex="1" parent="D3UzuKtn8YtnLK4msElT-1">
          <mxGeometry x="320" y="260" width="120" height="40" as="geometry" />
        </mxCell>
        <mxCell id="D3UzuKtn8YtnLK4msElT-40" value="修改标签" style="rounded=0;whiteSpace=wrap;html=1;" vertex="1" parent="D3UzuKtn8YtnLK4msElT-1">
          <mxGeometry x="320" y="705" width="120" height="40" as="geometry" />
        </mxCell>
        <mxCell id="D3UzuKtn8YtnLK4msElT-39" value="根据ID或NAME查询标签" style="rounded=0;whiteSpace=wrap;html=1;" vertex="1" parent="D3UzuKtn8YtnLK4msElT-1">
          <mxGeometry x="320" y="645" width="120" height="40" as="geometry" />
        </mxCell>
        <mxCell id="D3UzuKtn8YtnLK4msElT-41" style="edgeStyle=orthogonalEdgeStyle;rounded=0;orthogonalLoop=1;jettySize=auto;html=1;" edge="1" parent="D3UzuKtn8YtnLK4msElT-1" source="D3UzuKtn8YtnLK4msElT-28" target="D3UzuKtn8YtnLK4msElT-39">
          <mxGeometry relative="1" as="geometry">
            <mxPoint x="200" y="665" as="sourcePoint" />
            <mxPoint x="380" y="625" as="targetPoint" />
          </mxGeometry>
        </mxCell>
        <mxCell id="D3UzuKtn8YtnLK4msElT-42" value="获取全量机器标签" style="rounded=0;whiteSpace=wrap;html=1;" vertex="1" parent="D3UzuKtn8YtnLK4msElT-1">
          <mxGeometry x="320" y="765" width="120" height="40" as="geometry" />
        </mxCell>
      </root>
    </mxGraphModel>
  </diagram>
</mxfile>
